<svg width="50" height="50" viewBox="0 0 50 50" fill="none" xmlns="http://www.w3.org/2000/svg">
<g clip-path="url(#clip0_3806_13065)">
<path d="M47.4774 30.8334C47.2845 25.4828 45.1875 20.3769 41.564 16.4352C37.9406 12.4935 33.0288 9.97505 27.7133 9.33344C29.5641 7.50011 30.8308 6.01177 30.8308 3.96677C30.8308 0.237606 27.1766 -1.22656 24.9974 1.15594C22.8174 -1.22739 19.1641 0.239272 19.1641 3.96677C19.1641 6.01261 20.4316 7.50011 22.2833 9.33344C16.9722 9.98623 12.0669 12.508 8.44547 16.4473C4.82404 20.3867 2.72291 25.4864 2.51825 30.8334C2.18995 30.8321 1.86459 30.8954 1.56075 31.0198C1.25691 31.1441 0.980547 31.3271 0.747433 31.5583C0.514319 31.7895 0.329022 32.0643 0.202122 32.3671C0.0752211 32.6699 0.00920214 32.9947 0.0078342 33.323C0.00646627 33.6513 0.0697761 33.9767 0.194149 34.2805C0.318522 34.5844 0.501522 34.8607 0.732702 35.0938C0.963881 35.327 1.23871 35.5123 1.5415 35.6392C1.84429 35.7661 2.16911 35.8321 2.49742 35.8334H3.33075C2.83075 36.2351 2.61658 36.4243 1.08075 37.8334C0.822259 38.0671 0.644171 38.3765 0.571892 38.7174C0.499614 39.0583 0.536837 39.4133 0.678251 39.7318L4.55075 49.0293C4.66522 49.2785 4.83944 49.4957 5.05794 49.6614C5.27644 49.8272 5.53248 49.9365 5.80335 49.9796C6.07421 50.0227 6.35153 49.9983 6.6107 49.9086C6.86987 49.8188 7.10289 49.6665 7.28908 49.4651C10.3766 46.1318 9.79742 46.7668 10.1224 46.3726C10.4833 45.9284 11.2366 45.0001 11.6874 45.0001H25.4374C26.3961 44.9643 27.3106 44.5879 28.0166 43.9384L36.5699 35.8334H47.4974C47.8257 35.8321 48.1506 35.7662 48.4534 35.6393C48.7562 35.5125 49.031 35.3272 49.2623 35.0941C49.4935 34.8611 49.6765 34.5847 49.8009 34.2809C49.9254 33.9771 49.9887 33.6517 49.9874 33.3234C49.9861 32.9951 49.9201 32.6703 49.7933 32.3675C49.6664 32.0647 49.4812 31.7898 49.2481 31.5586C49.015 31.3274 48.7387 31.1443 48.4349 31.0199C48.1311 30.8955 47.8057 30.8321 47.4774 30.8334ZM24.2791 8.95761C22.1299 6.86511 20.8308 5.60344 20.8308 3.96677C20.8308 2.85177 21.4141 1.66677 22.4974 1.66677C22.875 1.70941 23.2345 1.85164 23.5391 2.0789C23.8437 2.30615 24.0824 2.61027 24.2308 2.96011C24.2947 3.1099 24.4011 3.23769 24.5368 3.32767C24.6725 3.41766 24.8317 3.4659 24.9945 3.46643C25.1574 3.46696 25.3168 3.41976 25.4531 3.33066C25.5895 3.24157 25.6967 3.11448 25.7616 2.96511C25.9098 2.61419 26.1486 2.30901 26.4537 2.08085C26.7587 1.8527 27.1189 1.70979 27.4974 1.66677C28.5808 1.66677 29.1641 2.85177 29.1641 3.96677C29.1641 5.81927 27.3216 7.39344 25.4883 9.17844C25.3216 9.17844 25.1616 9.16677 24.9974 9.16677C24.3933 9.16677 24.5858 9.25594 24.2791 8.95761ZM24.9974 10.8334C30.3791 10.8304 35.5528 12.9115 39.4333 16.6404C43.3138 20.3692 45.5994 25.4559 45.8108 30.8334H4.18492C4.40563 25.4593 6.69409 20.3782 10.5723 16.6513C14.4506 12.9245 19.6187 10.8401 24.9974 10.8334ZM26.8849 42.7176C26.4804 43.0864 25.9607 43.304 25.4141 43.3334H11.6874C10.4441 43.3334 9.50908 44.4826 8.82658 45.3209L6.08075 48.3609L2.20908 39.0609C3.42619 37.8162 4.79695 36.7316 6.28825 35.8334H25.0974C25.3518 35.8906 25.5834 36.0221 25.7629 36.2111C25.9424 36.4001 26.0617 36.6382 26.1058 36.8951C26.0992 37.2768 25.9438 37.6409 25.6726 37.9096C25.4014 38.1784 25.0359 38.3305 24.6541 38.3334H16.2624C16.0414 38.3334 15.8294 38.4212 15.6732 38.5775C15.5169 38.7338 15.4291 38.9458 15.4291 39.1668C15.4291 39.3878 15.5169 39.5998 15.6732 39.756C15.8294 39.9123 16.0414 40.0001 16.2624 40.0001H24.6541C26.7908 40.0001 28.4383 37.7568 27.5091 35.8334H34.1466L26.8849 42.7176ZM47.4974 34.1668H2.49742C2.2764 34.1668 2.06444 34.079 1.90816 33.9227C1.75188 33.7664 1.66408 33.5545 1.66408 33.3334C1.66408 33.1124 1.75188 32.9005 1.90816 32.7442C2.06444 32.5879 2.2764 32.5001 2.49742 32.5001H47.4974C47.7184 32.5001 47.9304 32.5879 48.0867 32.7442C48.243 32.9005 48.3308 33.1124 48.3308 33.3334C48.3308 33.5545 48.243 33.7664 48.0867 33.9227C47.9304 34.079 47.7184 34.1668 47.4974 34.1668Z" fill="#1CA8CB"/>
<path d="M19.7185 13.9089C16.9731 14.7762 14.4843 16.308 12.473 18.3682C10.4618 20.4284 8.99034 22.9534 8.18933 25.7189C8.1588 25.824 8.14927 25.9341 8.16129 26.0429C8.1733 26.1517 8.20663 26.2571 8.25937 26.353C8.3121 26.4489 8.38322 26.5335 8.46864 26.6019C8.55407 26.6703 8.65214 26.7213 8.75725 26.7518C8.86236 26.7823 8.97246 26.7919 9.08125 26.7799C9.19005 26.7678 9.29541 26.7345 9.39133 26.6818C9.48724 26.629 9.57183 26.5579 9.64027 26.4725C9.7087 26.3871 9.75963 26.289 9.79017 26.1839C10.5153 23.682 11.8469 21.3979 13.6666 19.5341C15.4863 17.6703 17.738 16.2845 20.2218 15.4997C20.4239 15.4266 20.5899 15.2782 20.6852 15.0855C20.7804 14.8929 20.7976 14.6709 20.7331 14.4659C20.6685 14.2609 20.5273 14.0888 20.3389 13.9855C20.1504 13.8821 19.9294 13.8556 19.7218 13.9114L19.7185 13.9089Z" fill="#1CA8CB"/>
</g>
<defs>
<clipPath id="clip0_3806_13065">
<rect width="50" height="50" fill="white"/>
</clipPath>
</defs>
</svg>
