<svg width="32" height="33" viewBox="0 0 32 33" fill="none" xmlns="http://www.w3.org/2000/svg">
<path d="M24.9593 14.7871C24.7024 15.0309 24.3589 15.167 24.0014 15.167C23.644 15.167 23.3005 15.0309 23.0436 14.7871C20.6902 12.5426 17.5366 10.0351 19.0746 6.39479C19.9061 4.42649 21.9022 3.16699 24.0014 3.16699C26.1006 3.16699 28.0966 4.42649 28.9282 6.39479C30.4642 10.0306 27.3184 12.5503 24.9593 14.7871Z" stroke="#0D0D0C" stroke-width="1.5"/>
<path d="M24 8.5H24.012" stroke="#0D0D0C" stroke-width="2" stroke-linecap="round" stroke-linejoin="round"/>
<path d="M6.66797 29.833C8.87711 29.833 10.668 28.0421 10.668 25.833C10.668 23.6239 8.87711 21.833 6.66797 21.833C4.45883 21.833 2.66797 23.6239 2.66797 25.833C2.66797 28.0421 4.45883 29.833 6.66797 29.833Z" stroke="#0D0D0C" stroke-width="1.5" stroke-linecap="round" stroke-linejoin="round"/>
<path d="M14.6667 9.83301H12.6667C10.0893 9.83301 8 11.6239 8 13.833C8 16.0422 10.0893 17.833 12.6667 17.833H16.6667C19.244 17.833 21.3333 19.6238 21.3333 21.833C21.3333 24.0422 19.244 25.833 16.6667 25.833H14.6667" stroke="#0D0D0C" stroke-width="1.5" stroke-linecap="round" stroke-linejoin="round"/>
</svg>
