<svg width="50" height="50" viewBox="0 0 50 50" fill="none" xmlns="http://www.w3.org/2000/svg">
<path d="M2.08594 10.417V38.542C2.08594 42.5691 12.3461 45.8337 25.0026 45.8337C37.6591 45.8337 47.9193 42.5691 47.9193 38.542V10.417" stroke="#1CA8CB" stroke-width="2" stroke-linecap="round" stroke-linejoin="round"/>
<path d="M12.6289 40.625L25.1289 31.25L34.3164 38.1406" stroke="#1CA8CB" stroke-width="2" stroke-linecap="round" stroke-linejoin="round"/>
<path d="M16.7956 30.2083C19.0968 30.2083 20.9622 28.3429 20.9622 26.0417C20.9622 23.7405 19.0968 21.875 16.7956 21.875C14.4944 21.875 12.6289 23.7405 12.6289 26.0417C12.6289 28.3429 14.4944 30.2083 16.7956 30.2083Z" stroke="#1CA8CB" stroke-width="2" stroke-linecap="round" stroke-linejoin="round"/>
<path d="M29.2969 34.375L37.6302 28.125L41.6698 31.1552" stroke="#1CA8CB" stroke-width="2" stroke-linecap="round" stroke-linejoin="round"/>
<path d="M12.5026 16.146V4.30664C6.23321 5.60783 2.08594 7.85755 2.08594 10.4168C2.08594 14.4439 12.3461 17.7085 25.0026 17.7085C37.6591 17.7085 47.9193 14.4439 47.9193 10.4168C47.9193 7.85755 43.772 5.60783 37.5026 4.30664V16.146" stroke="#1CA8CB" stroke-width="2" stroke-linecap="round" stroke-linejoin="round"/>
</svg>
